<?xml version="1.0" encoding="UTF-8" standalone="no"?>
<svg
   id="Layer_1"
   data-name="Layer 1"
   viewBox="0 0 321.99899 200"
   version="1.1"
   sodipodi:docname="ubuntu-logo-2022.svg"
   width="321.99899"
   height="200"
   inkscape:export-filename="ubuntu.svg"
   inkscape:export-xdpi="59.627514"
   inkscape:export-ydpi="59.627514"
   xmlns:inkscape="http://www.inkscape.org/namespaces/inkscape"
   xmlns:sodipodi="http://sodipodi.sourceforge.net/DTD/sodipodi-0.dtd"
   xmlns="http://www.w3.org/2000/svg"
   xmlns:svg="http://www.w3.org/2000/svg">
  <sodipodi:namedview
     id="namedview33"
     pagecolor="#ffffff"
     bordercolor="#000000"
     borderopacity="0.25"
     inkscape:showpageshadow="2"
     inkscape:pageopacity="0.0"
     inkscape:pagecheckerboard="0"
     inkscape:deskcolor="#d1d1d1"
     showgrid="false" />
  <defs
     id="defs4">
    <style
       id="style2">.cls-1{fill:#1d1d1b;}.cls-2{fill:#e9500e;}.cls-3{fill:#fff;}</style>
  </defs>
  <path
     class="cls-1"
     d="m 81.976591,77.87012 q -3.820767,0 -6.505778,-1.162717 A 11.202178,11.202178 0 0 1 71.124451,73.496037 12.879402,12.879402 0 0 1 68.715875,68.706585 22.334312,22.334313 0 0 1 67.968311,62.809924 V 38.669572 h 3.76505 v 23.642203 a 17.697722,17.697722 0 0 0 0.74751,5.453547 10.521308,10.521308 0 0 0 2.076435,3.792763 8.0981954,8.0981954 0 0 0 3.211175,2.214897 12.659866,12.659869 0 0 0 8.415955,0 8.1070454,8.1070488 0 0 0 3.211352,-2.214897 10.521032,10.521033 0 0 0 2.076257,-3.792763 17.697722,17.697722 0 0 0 0.747672,-5.453547 V 38.669572 h 3.76484 v 24.140352 a 22.343871,22.343875 0 0 1 -0.747309,5.896661 12.879322,12.879322 0 0 1 -2.408615,4.789442 11.210642,11.210642 0 0 1 -4.346323,3.211367 q -2.686223,1.162598 -6.505719,1.162726 z"
     id="path6"
     style="stroke-width:0.234738" />
  <path
     class="cls-1"
     d="m 108.33675,50.130848 q 0.94081,-0.718965 3.01768,-1.522597 a 13.572701,13.572701 0 0 1 4.89988,-0.803026 13.058243,13.058248 0 0 1 5.50938,1.107496 11.454851,11.454851 0 0 1 4.06936,3.100608 13.694001,13.694004 0 0 1 2.51928,4.733989 20.028717,20.028717 0 0 1 0.85825,6.007394 17.942385,17.942385 0 0 1 -1.02444,6.256529 13.465893,13.465893 0 0 1 -2.879,4.70624 12.383575,12.383579 0 0 1 -4.42952,2.962074 15.381728,15.381725 0 0 1 -5.73046,1.024351 q -3.82059,0 -6.31204,-0.498129 a 32.308807,32.308807 0 0 1 -4.09716,-1.0522 V 34.738502 l 3.59879,-0.664468 z m 0,23.531392 a 15.87002,15.870021 0 0 0 2.46383,0.52586 29.590798,29.590838 0 0 0 4.29113,0.249174 q 4.65094,0 7.47465,-3.017441 2.82378,-3.017325 2.82378,-8.665131 a 19.782159,19.782159 0 0 0 -0.49842,-4.512541 10.586998,10.586999 0 0 0 -1.60552,-3.709756 8.0473975,8.0473975 0 0 0 -2.90695,-2.519081 q -1.79975,-0.940807 -4.45705,-0.941165 a 11.588944,11.588944 0 0 0 -2.43615,0.249112 14.170164,14.170164 0 0 0 -2.15934,0.636586 11.940345,11.940344 0 0 0 -1.74405,0.830482 12.320254,12.320253 0 0 0 -1.24591,0.830545 z"
     id="path8"
     style="stroke-width:0.234738" />
  <path
     class="cls-1"
     d="m 158.22856,76.042869 q -1.6065,0.443929 -4.31885,0.996651 a 33.903757,33.903757 0 0 1 -6.64396,0.553684 q -3.21196,0 -5.3708,-0.941277 a 8.716921,8.7169165 0 0 1 -3.48829,-2.657526 10.760763,10.760763 0 0 1 -1.91,-4.152604 23.135667,23.135667 0 0 1 -0.58133,-5.370818 V 48.414307 h 3.59878 v 14.893976 a 25.425407,25.425412 0 0 0 0.44288,5.149358 q 0.44242,2.104755 1.43958,3.405075 a 5.6183299,5.6183313 0 0 0 2.57458,1.882505 11.18193,11.181928 0 0 0 3.84823,0.581352 30.781062,30.781062 0 0 0 4.42931,-0.276941 q 1.88191,-0.276444 2.38084,-0.49812 V 48.414307 h 3.59901 z"
     id="path10"
     style="stroke-width:0.234738" />
  <path
     class="cls-1"
     d="m 166.73207,49.411019 q 1.60513,-0.442526 4.31861,-0.996712 a 33.894847,33.894847 0 0 1 6.64419,-0.553569 q 3.26629,0 5.4538,0.941216 a 8.3857981,8.3857976 0 0 1 3.48805,2.685264 10.9706,10.970599 0 0 1 1.85496,4.1804 24.301993,24.302003 0 0 1 0.55365,5.370522 v 16.00138 h -3.59904 V 62.201082 a 27.111359,27.111359 0 0 0 -0.41514,-5.149348 8.6009783,8.6009783 0 0 0 -1.38407,-3.43284 5.3846107,5.3846117 0 0 0 -2.54713,-1.910226 q -1.57794,-0.581096 -3.95866,-0.581332 a 30.310334,30.310353 0 0 0 -4.40173,0.276915 q -1.8559,0.277501 -2.4087,0.498345 V 77.03952 h -3.59879 z"
     id="path12"
     style="stroke-width:0.234738" />
  <path
     class="cls-1"
     d="m 200.68848,48.414307 h 11.40591 v 3.045195 h -11.40591 v 15.226331 a 15.457748,15.457747 0 0 0 0.41539,3.958695 5.5147129,5.5147129 0 0 0 1.19041,2.353129 3.7679709,3.7679714 0 0 0 1.8825,1.107461 10.016461,10.016462 0 0 0 2.43608,0.276694 q 2.26985,0 3.65433,-0.525883 a 15.877688,15.877687 0 0 0 2.15936,-0.968994 l 0.8858,2.989928 q -0.77577,0.49827 -2.71316,1.134956 a 13.428109,13.428106 0 0 1 -4.2078,0.636851 q -2.65757,0 -4.45699,-0.692087 a 6.440754,6.440755 0 0 1 -2.87919,-2.103926 8.6218373,8.6218373 0 0 1 -1.52266,-3.516012 24.426249,24.426258 0 0 1 -0.44287,-4.98315 V 39.998453 l 3.5988,-0.664429 z"
     id="path14"
     style="stroke-width:0.234738" />
  <path
     class="cls-1"
     d="m 239.99939,76.042869 q -1.60661,0.443929 -4.31878,0.996651 a 33.903757,33.903757 0 0 1 -6.64401,0.553684 q -3.21194,0 -5.37075,-0.941277 a 8.7169121,8.7169087 0 0 1 -3.48834,-2.657526 10.760795,10.760794 0 0 1 -1.91006,-4.152604 23.135541,23.13554 0 0 1 -0.58129,-5.370818 V 48.414307 h 3.5988 v 14.893976 a 25.425256,25.425248 0 0 0 0.44289,5.149358 q 0.44257,2.104755 1.43962,3.405075 a 5.6183441,5.6183466 0 0 0 2.5745,1.882505 11.181944,11.181944 0 0 0 3.84824,0.581352 30.781089,30.781093 0 0 0 4.4293,-0.276941 q 1.8818,-0.276444 2.38086,-0.49812 V 48.414307 h 3.59902 z"
     id="path16"
     style="stroke-width:0.234738" />
  <rect
     class="cls-2"
     width="54.912704"
     height="84.57"
     id="rect18"
     x="0"
     y="0"
     style="stroke-width:0.234738" />
  <circle
     class="cls-3"
     cx="11.976611"
     cy="55.82019"
     id="circle20"
     style="stroke-width:0.234738"
     r="5.7627578" />
  <circle
     class="cls-3"
     cx="35.976387"
     cy="43.183968"
     id="circle22"
     style="stroke-width:0.234738"
     r="5.7627578" />
  <path
     class="cls-3"
     d="m 24.97363,70.651215 a 14.034661,14.034663 0 0 1 -9.570751,-7.299367 8.2957015,8.2957015 0 0 1 -4.927219,0.605625 18.76056,18.760561 0 0 0 13.506747,11.319946 18.986545,18.986545 0 0 0 4.092106,0.421122 8.2457575,8.2457575 0 0 1 -1.687267,-4.818105 c -0.474644,-0.05273 -0.94874,-0.129708 -1.413616,-0.229221 z"
     id="path24"
     style="stroke-width:0.234738" />
  <circle
     class="cls-3"
     cx="34.678028"
     cy="70.683075"
     id="circle26"
     style="stroke-width:0.234738"
     r="5.7627578" />
  <path
     class="cls-3"
     d="m 42.697209,68.566301 a 18.853869,18.853869 0 0 0 0.944814,-22.121351 8.3060631,8.3060631 0 0 1 -3.240618,3.79524 14.12813,14.12813 0 0 1 -0.461789,14.032702 8.2639107,8.2639117 0 0 1 2.757593,4.293409 z"
     id="path28"
     style="stroke-width:0.234738" />
  <path
     class="cls-3"
     d="m 11.532,47.555881 q 0.219371,-0.01201 0.438979,-0.01201 a 8.3167362,8.3167387 0 0 1 4.370284,1.244593 14.05484,14.05484 0 0 1 11.316973,-6.052558 8.3559659,8.3559669 0 0 1 1.748276,-4.673574 A 18.942336,18.942337 0 0 0 11.532,47.55589 Z"
     id="path30"
     style="stroke-width:0.234738" />
</svg>
